<?xml version="1.0" encoding="utf-8"?>
<!-- Generator: Adobe Illustrator 27.0.1, SVG Export Plug-In . SVG Version: 6.00 Build 0)  -->
<svg version="1.1" id="Layer_1" xmlns="http://www.w3.org/2000/svg" xmlns:xlink="http://www.w3.org/1999/xlink" x="0px" y="0px"
	 viewBox="0 0 562 168" style="enable-background:new 0 0 562 168;" xml:space="preserve">
<style type="text/css">
	.st0{fill:#FFFFFF;}
	.st1{fill:url(#SVGID_1_);}
	.st2{fill:url(#SVGID_00000086684732641181925520000008664157703985787055_);}
</style>
<g>
	<path class="st0" d="M1760.1-182c-8.9,0-16.4-3.1-22.5-9.4c-6.1-6.3-9.2-13.7-9.2-22.3s3.1-15.9,9.4-22.1
		c6.3-6.1,13.7-9.2,22.3-9.2c8.6,0,15.9,3.1,22.1,9.2c6.1,6.1,9.2,13.5,9.2,22.1s-3.1,16-9.2,22.3C1776-185.2,1768.6-182,1760.1-182
		z M1737.1-125.5h46V109h-46V-125.5z"/>
	<path class="st0" d="M2031.8,108.5c-15.3,2.4-33.4,3.7-54.2,3.7c-27.3,0-48.1-7.3-62.5-21.8c-14.4-14.6-21.6-36.2-21.6-65.1v-109
		h-59.8v-41.8h59.8c5.2,0-3.2,3.1,0,0c3.2-3.1,0,5.5,0,0v-82.8h46v82.8h92.4v41.8h-92.4V21.6c0,15.6,3.4,27.3,10.3,34.9
		c6.9,7.7,18.6,11.5,35.2,11.5c13.2,0,28.8-1.2,46.9-3.7v44.2H2031.8z"/>
	<path class="st0" d="M2305.3,23c-6.1,27.3-19.6,49.2-40.5,65.7c-20.8,16.6-46,24.8-75.4,24.8c-34.6,0-63.4-11.5-86.2-34.5
		s-34.3-52.1-34.3-87.3s11.4-64.4,34.3-87.4c22.8-23,51.6-34.5,86.2-34.5c29.4,0,54.6,8.4,75.6,25.1s34.4,38.7,40.2,66H2257
		c-5.2-14.1-13.8-25.4-25.7-33.8c-12-8.4-25.9-12.6-41.8-12.6c-21.2,0-38.7,7.4-52.6,22.1C2123-48.7,2116-30.3,2116-8.2
		c0,22.4,6.9,40.8,20.7,55.4s31.4,21.8,52.9,21.8c15.6,0,29.5-4.2,41.6-12.6s20.8-19.5,26-33.3L2305.3,23L2305.3,23z"/>
	<path class="st0" d="M2412.4-20.2V109h-46v-358.6h46V-91c17.5-26,42.9-39.1,76.3-39.1c29.7,0,53.7,10,71.9,29.9s27.4,46.6,27.4,80
		V109h-46V-20.2c0-19.6-5.7-35.4-17.2-47.4s-26.4-17.9-44.8-17.9c-19.3,0-35.4,6.1-48.3,18.2C2418.8-55.2,2412.4-39.5,2412.4-20.2z"
		/>
	<g>
		<path class="st0" d="M1486,67c-13.5,0-26.6-3.1-39.3-9.3c-12.7-6.2-22.6-14.4-29.6-24.5v115.7h-38.9v-185
			c0-29.6,9.9-54.2,29.8-73.8s44.7-29.4,74.6-29.4s54.6,9.7,74.4,29.2c19.7,19.5,29.6,44.1,29.6,74c0,29.6-9.6,54.2-28.8,73.8
			C1538.4,57.2,1514.6,67,1486,67z M1436.4-83c-12.3,12.5-18.5,28-18.5,46.7s6.2,34.3,18.5,46.7c12.3,12.5,27.7,18.7,46.1,18.7
			s33.7-6.2,46-18.7c12.2-12.5,18.3-28,18.3-46.7s-6.1-34.3-18.3-46.7c-12.2-12.5-27.5-18.7-46-18.7
			C1464.1-101.7,1448.7-95.4,1436.4-83z"/>
		<g>
			
				<linearGradient id="SVGID_1_" gradientUnits="userSpaceOnUse" x1="1481.8354" y1="1462.9622" x2="1481.8354" y2="1875.3462" gradientTransform="matrix(1 0 0 1 0 -1708)">
				<stop  offset="0" style="stop-color:#EC1C24"/>
				<stop  offset="5.549872e-02" style="stop-color:#ED2424"/>
				<stop  offset="0.2942" style="stop-color:#EE4023"/>
				<stop  offset="0.5326" style="stop-color:#F05522"/>
				<stop  offset="0.7688" style="stop-color:#F16122"/>
				<stop  offset="1" style="stop-color:#F16522"/>
			</linearGradient>
			<path class="st1" d="M1326.5,95.8c-4.2-4.7-6.6-7.1-8.7-9.7c-82.4-105.2-39.6-264.9,84.4-315.3c113.3-46,237.9,11.7,276.2,127.8
				c32.9,99.9-19.1,212.2-117,252.8c-22.1,9.2-45.1,14.5-69,15.9c-7.9,0.4-11.6-1.7-11.1-10.3c0.6-10.9,0.4-21.8,0-32.7
				c-0.2-6.9,2.6-8.9,9.2-9.4c66.3-4.6,119-46.6,138.8-110.2c24.6-78.6-21.7-166.3-100.4-190.3c-84.6-25.7-169.2,18.8-194.8,103.4
				c-4.1,13.4-6,27.8-6.3,41.8c-0.8,41.2-0.3,82.5-0.4,123.7C1327.5,86.6,1327,89.7,1326.5,95.8z"/>
		</g>
	</g>
</g>
<g>
	<g>
		
			<linearGradient id="SVGID_00000152943295103455160920000005804724295426122664_" gradientUnits="userSpaceOnUse" x1="20.8286" y1="148.9975" x2="121.3631" y2="48.4631" gradientTransform="matrix(1 0 0 -1 0 170)">
			<stop  offset="0" style="stop-color:#BE29EC"/>
			<stop  offset="1" style="stop-color:#660066"/>
		</linearGradient>
		<path style="fill:url(#SVGID_00000152943295103455160920000005804724295426122664_);" d="M131,109.2c-1.7-1.4-3.4-2.7-5.1-4
			c-6.3-5-12.9-9.4-19.8-13.5c-0.7-0.4-0.7-0.8-0.3-1.4c2-3.5,3.4-7.2,4.1-11.2c1-5.6,1-11.2-0.2-16.7c-1.6-7-4.9-13.1-9.8-18.4
			c-5.4-5.8-12.1-9.5-19.7-11.4c-7.3-1.8-14.5-1.3-21.6,1c-8.2,2.7-14.7,7.6-19.7,14.5c-3,4.1-5.1,8.6-6.2,13.6
			c-1,4.5-1.4,9.1-0.9,13.7c0.7,7.2,3.3,13.8,7.7,19.6c4.4,5.8,9.9,10.1,16.7,12.8c3.8,1.5,7.7,2.5,11.7,2.8c0.8,0.1,1.3,0.4,1.7,1
			c3.5,4.7,6.8,9.5,9.8,14.6c4.6,7.7,8.5,15.8,11.7,24.2c0.3,0.8,0.2,1.2-0.4,1.8c-3.5,3.5-7,7-10.5,10.5c-1,1-1.9,1.9-2.9,2.9
			c-3.4,3.4-9.1,3.3-12.5-0.1c-5.1-5.1-10.3-10.2-15.4-15.3c-6.9-6.9-13.7-13.7-20.5-20.6c-3.7-3.7-7.4-7.3-10.9-11.1
			c-4-4.4-7.3-9.2-10-14.5c-4.3-8.4-6.8-17.3-7.7-26.7c-0.9-9.3,0.2-18.2,2.9-27c2.9-9.6,7.7-18.1,14.2-25.6
			c5-5.8,10.8-10.6,17.4-14.6C40.9,6.3,47.5,3.7,54.4,2c3.1-0.8,6.2-1.3,9.3-1.5C66.6,0.3,69.4,0,72.3,0c2.7,0,5.5,0.4,8.2,0.7
			c5,0.5,9.8,1.8,14.5,3.5c7.6,2.7,14.5,6.6,20.8,11.7c4,3.2,7.5,6.8,10.7,10.8c3.2,3.9,5.8,8.2,8.1,12.6c4,7.8,6.2,16.2,7.2,24.8
			c0.6,5.4,0.5,10.8-0.3,16.2c-1.3,9.9-4.5,19.2-9.7,27.7c-0.2,0.3-0.3,0.5-0.5,0.8C131.3,109,131.2,109,131,109.2z"/>
		<path d="M36.7,73.4c-0.1-0.2-0.2-0.4-0.4-0.5c-0.4-0.2-0.9-0.3-1.3-0.5c-0.3-0.2-0.7-0.5-0.8-0.9c-0.3-1.2-0.1-1.4,1.1-1.2
			c6.6,0.7,13.2,1.9,19.7,3.3c8.7,1.9,17.3,4.6,25.6,7.9c6.5,2.6,12.9,5.5,19.1,8.9c7.2,3.9,14.2,8.3,20.8,13.2
			c3,2.2,5.9,4.6,8.8,6.9c0.5,0.4,0.6,0.8,0.2,1.4c-3.6,5.2-8.1,9.7-12.6,14.1c-0.8,0.8-1,0.8-1.7-0.2c-3.6-4.6-7.5-9-11.7-13.1
			c-0.4-0.4-0.7-0.4-1.1,0c-1.2,1-2.4,2-3.6,3c-0.4,0.3-0.4,0.6-0.1,1c3.2,4,6.4,8,9.6,12.1c0.7,0.9,1.3,1.9,2,2.7
			c0.4,0.5,0.3,0.8-0.1,1.3c-3.3,3.3-6.7,6.6-10,9.9c-2.1,2.1-4.1,4.1-6.2,6.2c-0.7,0.7-0.9,0.6-1.3-0.2
			c-3.1-8.3-7.1-16.2-11.6-23.8c-5.4-9-11.6-17.3-18.6-25.1c-6.3-7-13.3-13.3-20.7-19.1c-2.2-1.7-4.4-3.2-6.6-4.8
			c-0.5-0.4-1.1-2.1-0.8-2.6c0.1-0.1,0.4-0.2,0.6-0.2c0.5,0.2,1.1,0.4,1.6,0.6C36.6,73.5,36.7,73.5,36.7,73.4z M77.5,92.1
			c-0.3,0.1-0.5,0.3-0.7,0.4c-0.6,0.5-1.1,1-1.6,1.4c-0.8,0.7-0.8,0.8,0.1,1.4c6.8,5,13.2,10.5,19,16.6c0.5,0.5,0.9,0.6,1.4,0.1
			c1-0.9,2-1.7,3-2.6c0.7-0.6,0.6-0.8,0-1.4c-6.4-5.7-13.2-10.9-20.4-15.6C78,92.3,77.8,92.2,77.5,92.1z M71.1,92.2
			c0.3-0.2,0.5-0.3,0.7-0.4c0.4-0.3,0.8-0.7,1.3-1.1c0.8-0.6,0.7-0.9-0.1-1.4c-3.6-2-7.3-4-10.9-6c-1.2-0.7-1.3-0.6-2.3,0.4
			c-0.8,0.8-0.7,1,0.2,1.6c3.4,2.2,6.9,4.3,10.3,6.5C70.5,91.9,70.8,92.1,71.1,92.2z M48.3,77.1c-0.4,0.4-0.8,0.7-1.1,1.1
			c0.3,0.3,0.5,0.6,0.9,0.8c2.4,1.3,4.9,2.5,7.3,3.8c0.6,0.4,1.1,0.4,1.6-0.2c0.2-0.2,0.4-0.4,0.6-0.6c0.5-0.5,0.5-0.7-0.2-1
			c-2.5-1.1-5.1-2.2-7.6-3.3C49.3,77.5,48.9,77.3,48.3,77.1z M38.1,73.3c-0.2,0.1-0.5,0.2-0.5,0.4c0,0.2,0.2,0.5,0.3,0.6
			c0.6,0.3,1.2,0.5,1.8,0.8c0.9,0.4,1.8,0.9,2.7,1.1c0.8,0.2,1.5,0.3,2.1,1c0.1,0.2,0.7,0.1,0.9,0c0.3-0.2,0.5-0.5,0.8-0.8
			c-0.3-0.2-0.5-0.4-0.8-0.5c-1.8-0.7-3.5-1.3-5.3-1.9C39.5,73.8,38.9,73.6,38.1,73.3z"/>
	</g>
	<g>
		<path d="M278.8,38.6c-1.7,0.2-3.2,0.5-4.6,0.9s-2.7,1-4,1.8c-2,1.1-3.8,2.6-5.4,4.3c-1.6,1.8-3.1,3.7-4.6,5.8
			c-3,4.4-6.2,9.3-9.5,14.5s-7,10.9-10.9,17.2c-2.6,4-4.1,7-4.7,9.1c-0.6,2.1-0.9,5.8-0.9,11v14.1c0,1.7,0.3,3.2,0.9,4.4
			c0.6,1.3,1.8,2.3,3.6,3.1c0.8,0.3,2.5,0.8,5,1.3c2.6,0.5,4.5,0.9,5.7,0.9v5.5H194V127c1.3-0.1,3.2-0.3,5.6-0.6
			c2.5-0.3,4.2-0.6,5.1-1c1.7-0.7,2.9-1.7,3.5-3c0.6-1.2,0.9-2.7,0.9-4.5v-17.5c0-1.5,0-2.9-0.1-4.1c0-1.2-0.2-2.1-0.5-2.9
			c-0.3-0.9-0.9-2-1.7-3.4s-1.8-3.2-3.1-5.4c-3.6-6.3-7.1-12.3-10.4-17.9c-3.4-5.6-6.6-11-9.6-15.9c-1.6-2.6-3.2-4.6-4.8-6.2
			c-1.6-1.6-3.3-2.8-4.9-3.8c-1.3-0.7-2.8-1.2-4.6-1.6c-1.8-0.4-3.4-0.6-4.9-0.7V33h56.9v5.5c-5.2,0.1-8.7,0.5-10.5,1.1
			s-2.7,1.4-2.7,2.4c0,0.5,0.3,1.5,1,3.1c0.7,1.5,1.9,3.9,3.6,7.1c1.6,3,3.9,7.2,7,12.5s6.7,11.5,11,18.7
			c8.9-14,14.9-23.9,18.3-29.4c3.3-5.6,5-9,5-10.3c0-1.6-1-2.8-2.9-3.6s-5.1-1.4-9.5-1.6V33h36.8v5.6H278.8z"/>
		<path d="M349.7,71.4c3.5,3.2,6.1,7.1,7.9,11.6s2.7,9.3,2.7,14.6c0,5.2-0.9,10.1-2.7,14.7c-1.8,4.6-4.4,8.5-7.9,11.8
			c-3.7,3.5-8.1,6.2-13.2,8.1s-11,2.8-17.5,2.8c-5.7,0-10.9-0.8-15.7-2.5c-4.8-1.6-9-4.1-12.7-7.4c-3.5-3.1-6.4-7-8.4-11.6
			c-2.1-4.6-3.1-9.7-3.1-15.4c0-5.6,0.9-10.6,2.7-15c1.8-4.4,4.5-8.3,8.1-11.7c3.5-3.3,7.7-5.8,12.8-7.6c5.1-1.8,10.7-2.7,17-2.7
			c6.5,0,12.3,0.9,17.3,2.7C341.9,65.6,346.2,68.1,349.7,71.4z M331.8,119.9c1-2.6,1.8-5.8,2.3-9.5s0.7-8.1,0.7-13
			c0-3.3-0.2-7-0.7-11.2s-1.2-7.5-2.1-9.9c-1.1-2.9-2.7-5.3-4.7-6.9c-2-1.7-4.5-2.5-7.5-2.5c-3.3,0-6,0.9-8,2.7
			c-2,1.8-3.5,4.2-4.6,7.1c-1,2.7-1.7,5.8-2,9.4c-0.4,3.6-0.6,7.3-0.6,11.2c0,5.1,0.2,9.3,0.5,12.6c0.3,3.3,1.1,6.7,2.4,10.1
			c1.1,2.9,2.6,5.2,4.6,6.9c2,1.7,4.6,2.5,7.6,2.5c2.8,0,5.2-0.8,7.2-2.3C329,125.2,330.6,122.9,331.8,119.9z"/>
		<path d="M461.9,132.6h-42.1v-5.1c0.9-0.1,2-0.2,3.2-0.4c1.3-0.1,2.2-0.4,2.9-0.7c1-0.5,1.7-1.3,2.1-2.2c0.4-1,0.6-2.4,0.6-4.3V87
			c0-4.8-0.9-8.3-2.6-10.8c-1.8-2.4-4.3-3.6-7.8-3.6c-1.9,0-3.6,0.3-5.2,0.8c-1.6,0.6-3.2,1.4-4.7,2.5c-1.4,0.9-2.4,1.9-3.3,2.9
			c-0.8,1-1.5,1.8-2.1,2.6V119c0,1.6,0.2,3,0.7,4.1s1.2,1.9,2.3,2.5c0.7,0.4,1.7,0.8,2.8,1.1c1.1,0.3,2.2,0.6,3.3,0.7v5.1h-42.6
			v-5.1c1.2-0.1,2.3-0.2,3.5-0.4c1.2-0.2,2.2-0.4,3-0.7c1.5-0.5,2.5-1.3,3.1-2.4s0.8-2.5,0.8-4.2V79.1c0-1.4-0.4-2.9-1.1-4.3
			s-1.7-2.5-2.9-3.4c-0.8-0.6-1.9-1-3.2-1.4c-1.3-0.4-2.7-0.6-4.2-0.8v-5.1l33.4-1.8l1.1,1.1v10.2h0.3c1.3-1.2,2.9-2.6,4.8-4.2
			s3.6-3,5.2-4c1.7-1.1,4-2.1,6.8-2.9c2.8-0.8,5.8-1.2,9-1.2c7.6,0,13.3,2.2,17.1,6.5c3.8,4.3,5.7,10.1,5.7,17.2v34.3
			c0,1.7,0.3,3.1,0.8,4.1s1.5,1.8,2.9,2.5c0.7,0.3,1.7,0.7,2.8,1c1.1,0.3,2.3,0.6,3.7,0.7L461.9,132.6L461.9,132.6z"/>
		<path d="M560.8,132.6h-42.1v-5.1c0.9-0.1,2-0.2,3.2-0.4c1.3-0.1,2.2-0.4,2.9-0.7c1-0.5,1.7-1.3,2.1-2.2c0.4-1,0.6-2.4,0.6-4.3V87
			c0-4.8-0.9-8.3-2.6-10.8c-1.8-2.4-4.3-3.6-7.8-3.6c-1.9,0-3.6,0.3-5.2,0.8c-1.6,0.6-3.2,1.4-4.7,2.5c-1.4,0.9-2.4,1.9-3.3,2.9
			c-0.8,1-1.5,1.8-2.1,2.6V119c0,1.6,0.2,3,0.7,4.1s1.2,1.9,2.3,2.5c0.7,0.4,1.7,0.8,2.8,1.1c1.1,0.3,2.2,0.6,3.3,0.7v5.1h-42.6
			v-5.1c1.2-0.1,2.3-0.2,3.5-0.4c1.2-0.2,2.2-0.4,3-0.7c1.5-0.5,2.5-1.3,3.1-2.4s0.8-2.5,0.8-4.2V79.1c0-1.4-0.4-2.9-1.1-4.3
			s-1.7-2.5-2.9-3.4c-0.8-0.6-1.9-1-3.2-1.4c-1.3-0.4-2.7-0.6-4.2-0.8v-5.1l33.4-1.8l1.1,1.1v10.2h0.3c1.3-1.2,2.9-2.6,4.8-4.2
			s3.6-3,5.2-4c1.7-1.1,4-2.1,6.8-2.9c2.8-0.8,5.8-1.2,9-1.2c7.6,0,13.3,2.2,17.1,6.5c3.8,4.3,5.7,10.1,5.7,17.2v34.3
			c0,1.7,0.3,3.1,0.8,4.1s1.5,1.8,2.9,2.5c0.7,0.3,1.7,0.7,2.8,1s2.3,0.6,3.7,0.7L560.8,132.6L560.8,132.6z"/>
	</g>
</g>
</svg>
