<?xml version="1.0" encoding="utf-8"?>
<!-- Generator: Adobe Illustrator 27.0.1, SVG Export Plug-In . SVG Version: 6.00 Build 0)  -->
<svg version="1.1" id="Layer_1" xmlns="http://www.w3.org/2000/svg" xmlns:xlink="http://www.w3.org/1999/xlink" x="0px" y="0px"
	 viewBox="0 0 562 168" style="enable-background:new 0 0 562 168;" xml:space="preserve">
<style type="text/css">
	.st0{fill:#FFFFFF;}
</style>
<g>
	<g>
		<path class="st0" d="M131,109.2c-1.7-1.4-3.4-2.7-5.1-4c-6.3-5-12.9-9.4-19.8-13.5c-0.7-0.4-0.7-0.8-0.3-1.4
			c2-3.5,3.4-7.2,4.1-11.2c1-5.6,1-11.2-0.2-16.7c-1.6-7-4.9-13.1-9.8-18.4c-5.4-5.8-12.1-9.5-19.7-11.4c-7.3-1.8-14.5-1.3-21.6,1
			c-8.2,2.7-14.7,7.6-19.7,14.5c-3,4.1-5.1,8.6-6.2,13.6c-1,4.5-1.4,9.1-0.9,13.7c0.7,7.2,3.3,13.8,7.7,19.6
			c4.4,5.8,9.9,10.1,16.7,12.8c3.8,1.5,7.7,2.5,11.7,2.8c0.8,0.1,1.3,0.4,1.7,1c3.5,4.7,6.8,9.5,9.8,14.6
			c4.6,7.7,8.5,15.8,11.7,24.2c0.3,0.8,0.2,1.2-0.4,1.8c-3.5,3.5-7,7-10.5,10.5c-1,1-1.9,1.9-2.9,2.9c-3.4,3.4-9.1,3.3-12.5-0.1
			c-5.1-5.1-10.3-10.2-15.4-15.3c-6.9-6.9-13.7-13.7-20.5-20.6c-3.7-3.7-7.4-7.3-10.9-11.1c-4-4.4-7.3-9.2-10-14.5
			c-4.3-8.4-6.8-17.3-7.7-26.7C-0.6,68,0.5,59.1,3.2,50.3c2.9-9.6,7.7-18.1,14.2-25.6c5-5.8,10.8-10.6,17.4-14.6
			C40.9,6.3,47.5,3.7,54.4,2c3.1-0.8,6.2-1.3,9.3-1.5C66.6,0.3,69.4,0,72.3,0c2.7,0,5.5,0.4,8.2,0.7c5,0.5,9.8,1.8,14.5,3.5
			c7.6,2.7,14.5,6.6,20.8,11.7c4,3.2,7.5,6.8,10.7,10.8c3.2,3.9,5.8,8.2,8.1,12.6c4,7.8,6.2,16.2,7.2,24.8
			c0.6,5.4,0.5,10.8-0.3,16.2c-1.3,9.9-4.5,19.2-9.7,27.7c-0.2,0.3-0.3,0.5-0.5,0.8C131.3,109,131.2,109,131,109.2z"/>
		<path class="st0" d="M36.7,73.4c-0.1-0.2-0.2-0.4-0.4-0.5c-0.4-0.2-0.9-0.3-1.3-0.5c-0.3-0.2-0.7-0.5-0.8-0.9
			c-0.3-1.2-0.1-1.4,1.1-1.2c6.6,0.7,13.2,1.9,19.7,3.3c8.7,1.9,17.3,4.6,25.6,7.9c6.5,2.6,12.9,5.5,19.1,8.9
			c7.2,3.9,14.2,8.3,20.8,13.2c3,2.2,5.9,4.6,8.8,6.9c0.5,0.4,0.6,0.8,0.2,1.4c-3.6,5.2-8.1,9.7-12.6,14.1c-0.8,0.8-1,0.8-1.7-0.2
			c-3.6-4.6-7.5-9-11.7-13.1c-0.4-0.4-0.7-0.4-1.1,0c-1.2,1-2.4,2-3.6,3c-0.4,0.3-0.4,0.6-0.1,1c3.2,4,6.4,8,9.6,12.1
			c0.7,0.9,1.3,1.9,2,2.7c0.4,0.5,0.3,0.8-0.1,1.3c-3.3,3.3-6.7,6.6-10,9.9c-2.1,2.1-4.1,4.1-6.2,6.2c-0.7,0.7-0.9,0.6-1.3-0.2
			c-3.1-8.3-7.1-16.2-11.6-23.8c-5.4-9-11.6-17.3-18.6-25.1c-6.3-7-13.3-13.3-20.7-19.1c-2.2-1.7-4.4-3.2-6.6-4.8
			c-0.5-0.4-1.1-2.1-0.8-2.6c0.1-0.1,0.4-0.2,0.6-0.2c0.5,0.2,1.1,0.4,1.6,0.6C36.6,73.5,36.7,73.5,36.7,73.4z M77.5,92.1
			c-0.3,0.1-0.5,0.3-0.7,0.4c-0.6,0.5-1.1,1-1.6,1.4c-0.8,0.7-0.8,0.8,0.1,1.4c6.8,5,13.2,10.5,19,16.6c0.5,0.5,0.9,0.6,1.4,0.1
			c1-0.9,2-1.7,3-2.6c0.7-0.6,0.6-0.8,0-1.4c-6.4-5.7-13.2-10.9-20.4-15.6C78,92.3,77.8,92.2,77.5,92.1z M71.1,92.2
			c0.3-0.2,0.5-0.3,0.7-0.4c0.4-0.3,0.8-0.7,1.3-1.1c0.8-0.6,0.7-0.9-0.1-1.4c-3.6-2-7.3-4-10.9-6c-1.2-0.7-1.3-0.6-2.3,0.4
			c-0.8,0.8-0.7,1,0.2,1.6c3.4,2.2,6.9,4.3,10.3,6.5C70.5,91.9,70.8,92.1,71.1,92.2z M48.3,77.1c-0.4,0.4-0.8,0.7-1.1,1.1
			c0.3,0.3,0.5,0.6,0.9,0.8c2.4,1.3,4.9,2.5,7.3,3.8c0.6,0.4,1.1,0.4,1.6-0.2c0.2-0.2,0.4-0.4,0.6-0.6c0.5-0.5,0.5-0.7-0.2-1
			c-2.5-1.1-5.1-2.2-7.6-3.3C49.3,77.5,48.9,77.3,48.3,77.1z M38.1,73.3c-0.2,0.1-0.5,0.2-0.5,0.4c0,0.2,0.2,0.5,0.3,0.6
			c0.6,0.3,1.2,0.5,1.8,0.8c0.9,0.4,1.8,0.9,2.7,1.1c0.8,0.2,1.5,0.3,2.1,1c0.1,0.2,0.7,0.1,0.9,0c0.3-0.2,0.5-0.5,0.8-0.8
			c-0.3-0.2-0.5-0.4-0.8-0.5c-1.8-0.7-3.5-1.3-5.3-1.9C39.5,73.8,38.9,73.6,38.1,73.3z"/>
	</g>
	<g>
		<path class="st0" d="M278.8,38.6c-1.7,0.2-3.2,0.5-4.6,0.9c-1.4,0.4-2.7,1-4,1.8c-2,1.1-3.8,2.6-5.4,4.3c-1.6,1.8-3.1,3.7-4.6,5.8
			c-3,4.4-6.2,9.3-9.5,14.5c-3.3,5.2-7,10.9-10.9,17.2c-2.6,4-4.1,7-4.7,9.1c-0.6,2.1-0.9,5.8-0.9,11v14.1c0,1.7,0.3,3.2,0.9,4.4
			c0.6,1.3,1.8,2.3,3.6,3.1c0.8,0.3,2.5,0.8,5,1.3c2.6,0.5,4.5,0.9,5.7,0.9v5.5h-55.4v-5.5c1.3-0.1,3.2-0.3,5.6-0.6
			c2.5-0.3,4.2-0.6,5.1-1c1.7-0.7,2.9-1.7,3.5-3c0.6-1.2,0.9-2.7,0.9-4.5v-17.5c0-1.5,0-2.9-0.1-4.1c0-1.2-0.2-2.1-0.5-2.9
			c-0.3-0.9-0.9-2-1.7-3.4c-0.8-1.4-1.8-3.2-3.1-5.4c-3.6-6.3-7.1-12.3-10.4-17.9c-3.4-5.6-6.6-11-9.6-15.9
			c-1.6-2.6-3.2-4.6-4.8-6.2c-1.6-1.6-3.3-2.8-4.9-3.8c-1.3-0.7-2.8-1.2-4.6-1.6c-1.8-0.4-3.4-0.6-4.9-0.7v-5.5h56.9v5.5
			c-5.2,0.1-8.7,0.5-10.5,1.1c-1.8,0.6-2.7,1.4-2.7,2.4c0,0.5,0.3,1.5,1,3.1c0.7,1.5,1.9,3.9,3.6,7.1c1.6,3,3.9,7.2,7,12.5
			c3.1,5.3,6.7,11.5,11,18.7c8.9-14,14.9-23.9,18.3-29.4c3.3-5.6,5-9,5-10.3c0-1.6-1-2.8-2.9-3.6c-1.9-0.8-5.1-1.4-9.5-1.6v-5.5
			h36.8V38.6z"/>
		<path class="st0" d="M349.7,71.4c3.5,3.2,6.1,7.1,7.9,11.6c1.8,4.5,2.7,9.3,2.7,14.6c0,5.2-0.9,10.1-2.7,14.7
			c-1.8,4.6-4.4,8.5-7.9,11.8c-3.7,3.5-8.1,6.2-13.2,8.1c-5.1,1.9-11,2.8-17.5,2.8c-5.7,0-10.9-0.8-15.7-2.5
			c-4.8-1.6-9-4.1-12.7-7.4c-3.5-3.1-6.4-7-8.4-11.6c-2.1-4.6-3.1-9.7-3.1-15.4c0-5.6,0.9-10.6,2.7-15c1.8-4.4,4.5-8.3,8.1-11.7
			c3.5-3.3,7.7-5.8,12.8-7.6c5.1-1.8,10.7-2.7,17-2.7c6.5,0,12.3,0.9,17.3,2.7C341.9,65.6,346.2,68.1,349.7,71.4z M331.8,119.9
			c1-2.6,1.8-5.8,2.3-9.5c0.5-3.7,0.7-8.1,0.7-13c0-3.3-0.2-7-0.7-11.2c-0.5-4.2-1.2-7.5-2.1-9.9c-1.1-2.9-2.7-5.3-4.7-6.9
			c-2-1.7-4.5-2.5-7.5-2.5c-3.3,0-6,0.9-8,2.7c-2,1.8-3.5,4.2-4.6,7.1c-1,2.7-1.7,5.8-2,9.4c-0.4,3.6-0.6,7.3-0.6,11.2
			c0,5.1,0.2,9.3,0.5,12.6c0.3,3.3,1.1,6.7,2.4,10.1c1.1,2.9,2.6,5.2,4.6,6.9c2,1.7,4.6,2.5,7.6,2.5c2.8,0,5.2-0.8,7.2-2.3
			C329,125.2,330.6,122.9,331.8,119.9z"/>
		<path class="st0" d="M461.9,132.6h-42.1v-5.1c0.9-0.1,2-0.2,3.2-0.4c1.3-0.1,2.2-0.4,2.9-0.7c1-0.5,1.7-1.3,2.1-2.2
			c0.4-1,0.6-2.4,0.6-4.3V87c0-4.8-0.9-8.3-2.6-10.8c-1.8-2.4-4.3-3.6-7.8-3.6c-1.9,0-3.6,0.3-5.2,0.8c-1.6,0.6-3.2,1.4-4.7,2.5
			c-1.4,0.9-2.4,1.9-3.3,2.9c-0.8,1-1.5,1.8-2.1,2.6v37.6c0,1.6,0.2,3,0.7,4.1c0.5,1.1,1.2,1.9,2.3,2.5c0.7,0.4,1.7,0.8,2.8,1.1
			c1.1,0.3,2.2,0.6,3.3,0.7v5.1h-42.6v-5.1c1.2-0.1,2.3-0.2,3.5-0.4c1.2-0.2,2.2-0.4,3-0.7c1.5-0.5,2.5-1.3,3.1-2.4
			c0.6-1.1,0.8-2.5,0.8-4.2V79.1c0-1.4-0.4-2.9-1.1-4.3c-0.7-1.4-1.7-2.5-2.9-3.4c-0.8-0.6-1.9-1-3.2-1.4c-1.3-0.4-2.7-0.6-4.2-0.8
			v-5.1l33.4-1.8l1.1,1.1v10.2h0.3c1.3-1.2,2.9-2.6,4.8-4.2c1.9-1.6,3.6-3,5.2-4c1.7-1.1,4-2.1,6.8-2.9c2.8-0.8,5.8-1.2,9-1.2
			c7.6,0,13.3,2.2,17.1,6.5c3.8,4.3,5.7,10.1,5.7,17.2v34.3c0,1.7,0.3,3.1,0.8,4.1c0.5,1,1.5,1.8,2.9,2.5c0.7,0.3,1.7,0.7,2.8,1
			c1.1,0.3,2.3,0.6,3.7,0.7V132.6z"/>
		<path class="st0" d="M560.8,132.6h-42.1v-5.1c0.9-0.1,2-0.2,3.2-0.4c1.3-0.1,2.2-0.4,2.9-0.7c1-0.5,1.7-1.3,2.1-2.2
			c0.4-1,0.6-2.4,0.6-4.3V87c0-4.8-0.9-8.3-2.6-10.8c-1.8-2.4-4.3-3.6-7.8-3.6c-1.9,0-3.6,0.3-5.2,0.8c-1.6,0.6-3.2,1.4-4.7,2.5
			c-1.4,0.9-2.4,1.9-3.3,2.9c-0.8,1-1.5,1.8-2.1,2.6v37.6c0,1.6,0.2,3,0.7,4.1c0.5,1.1,1.2,1.9,2.3,2.5c0.7,0.4,1.7,0.8,2.8,1.1
			c1.1,0.3,2.2,0.6,3.3,0.7v5.1h-42.6v-5.1c1.2-0.1,2.3-0.2,3.5-0.4c1.2-0.2,2.2-0.4,3-0.7c1.5-0.5,2.5-1.3,3.1-2.4
			c0.6-1.1,0.8-2.5,0.8-4.2V79.1c0-1.4-0.4-2.9-1.1-4.3c-0.7-1.4-1.7-2.5-2.9-3.4c-0.8-0.6-1.9-1-3.2-1.4c-1.3-0.4-2.7-0.6-4.2-0.8
			v-5.1l33.4-1.8l1.1,1.1v10.2h0.3c1.3-1.2,2.9-2.6,4.8-4.2c1.9-1.6,3.6-3,5.2-4c1.7-1.1,4-2.1,6.8-2.9c2.8-0.8,5.8-1.2,9-1.2
			c7.6,0,13.3,2.2,17.1,6.5c3.8,4.3,5.7,10.1,5.7,17.2v34.3c0,1.7,0.3,3.1,0.8,4.1c0.5,1,1.5,1.8,2.9,2.5c0.7,0.3,1.7,0.7,2.8,1
			c1.1,0.3,2.3,0.6,3.7,0.7V132.6z"/>
	</g>
</g>
</svg>
